HIERARCHY
ROOT Hips
{
 OFFSET 0.000000 0.000000 0.000000
 CHANNELS 6 Xposition Yposition Zposition Yrotation Xrotation Zrotation
 JOINT Chest
 {
  OFFSET 0.000000 9.585900 0.002600
  CHANNELS 3 Yrotation Xrotation Zrotation
  JOINT Chest2
  {
   OFFSET 0.000000 9.601200 -0.005300
   CHANNELS 3 Yrotation Xrotation Zrotation
   JOINT Chest3
   {
    OFFSET 0.000000 9.561800 0.000000
    CHANNELS 3 Yrotation Xrotation Zrotation
    JOINT Chest4
    {
     OFFSET 0.000000 9.552100 0.000000
     CHANNELS 3 Yrotation Xrotation Zrotation
     JOINT Neck
     {
      OFFSET 0.000000 14.453000 0.000000
      CHANNELS 3 Yrotation Xrotation Zrotation
      JOINT Head
      {
       OFFSET 0.000000 8.936500 -0.011300
       CHANNELS 3 Yrotation Xrotation Zrotation
       End Site
       {
        OFFSET 0.000000 17.073600 -0.006000
       }
      }
     }
     JOINT RightCollar
     {
      OFFSET -2.921100 9.558500 0.000000
      CHANNELS 3 Yrotation Xrotation Zrotation
      JOINT RightShoulder
      {
       OFFSET -13.519700 0.000000 0.000000
       CHANNELS 3 Yrotation Xrotation Zrotation
       JOINT RightElbow
       {
        OFFSET 0.000000 -29.696600 0.000000
        CHANNELS 3 Yrotation Xrotation Zrotation
        JOINT RightWrist
        {
         OFFSET 0.000000 -24.004700 0.000000
         CHANNELS 3 Yrotation Xrotation Zrotation
         End Site
         {
          OFFSET 0.000000 -17.728500 0.000000
         }
        }
       }
      }
     }
     JOINT LeftCollar
     {
      OFFSET 2.921100 9.558500 0.000000
      CHANNELS 3 Yrotation Xrotation Zrotation
      JOINT LeftShoulder
      {
       OFFSET 13.519700 0.000000 0.000000
       CHANNELS 3 Yrotation Xrotation Zrotation
       JOINT LeftElbow
       {
        OFFSET 0.000000 -29.696600 0.000000
        CHANNELS 3 Yrotation Xrotation Zrotation
        JOINT LeftWrist
        {
         OFFSET 0.000000 -24.004700 0.000000
         CHANNELS 3 Yrotation Xrotation Zrotation
         End Site
         {
          OFFSET 0.000000 -17.728500 0.000000
         }
        }
       }
      }
     }
    }
   }
  }
 }
 JOINT RightHip
 {
  OFFSET -7.771700 -0.012900 -0.001300
  CHANNELS 3 Yrotation Xrotation Zrotation
  JOINT RightKnee
  {
   OFFSET 0.000000 -40.869800 0.001200
   CHANNELS 3 Yrotation Xrotation Zrotation
   JOINT RightAnkle
   {
    OFFSET 0.000000 -39.717900 0.002100
    CHANNELS 3 Yrotation Xrotation Zrotation
    JOINT RightToe
    {
     OFFSET 0.000000 -4.965400 11.033500
     CHANNELS 3 Yrotation Xrotation Zrotation
     End Site
     {
      OFFSET 0.000000 -1.423100 5.872300
     }
    }
   }
  }
 }
 JOINT LeftHip
 {
  OFFSET 7.771700 -0.012900 -0.001300
  CHANNELS 3 Yrotation Xrotation Zrotation
  JOINT LeftKnee
  {
   OFFSET 0.000000 -40.869800 0.001200
   CHANNELS 3 Yrotation Xrotation Zrotation
   JOINT LeftAnkle
   {
    OFFSET 0.000000 -39.717900 0.002100
    CHANNELS 3 Yrotation Xrotation Zrotation
    JOINT LeftToe
    {
     OFFSET 0.000000 -4.965400 11.033500
     CHANNELS 3 Yrotation Xrotation Zrotation
     End Site
     {
      OFFSET 0.000000 -1.423100 5.872300
     }
    }
   }
  }
 }
}
MOTION
Frames: 16
Frame Time: 0.008333
-44.892066 56.466796 44.373995 -168.503125 -31.340936 -11.054467 -4.557091 14.797337 5.625702 -2.775120 8.343636 1.512252 -3.440830 10.434258 1.826237 -2.775679 8.342507 1.514064 4.381718 20.317192 -1.261539 4.999573 -4.027158 -2.356022 2.703326 -1.132845 -4.128290 4.231004 -13.961158 5.597278 74.299841 -46.106707 -59.762369 10.907290 0.496909 -15.975139 -10.983766 3.477384 -3.874344 -3.754179 -8.373520 2.015080 -75.758611 -46.287166 83.955074 3.984116 -20.537982 0.504139 -22.310240 -27.498288 3.435394 43.121901 88.064506 40.429872 0.069918 -24.890861 -0.862668 -0.091887 0.704752 -0.044460 -17.394814 -43.722078 7.203978 171.677863 72.794255 169.342825 0.389219 -22.497792 -1.382423 -1.691456 -4.124126 -0.741697
-44.895449 56.467206 44.374037 -168.506991 -31.324903 -11.057179 -4.553740 14.786532 5.627310 -2.771622 8.337415 1.509091 -3.437997 10.427881 1.828101 -2.778398 8.343767 1.518676 4.360353 20.328687 -1.246452 4.969063 -4.012698 -2.329510 2.693851 -1.065332 -4.115887 4.230568 -13.994965 5.598444 74.279196 -46.104166 -59.745935 10.853153 0.506306 -15.982454 -10.977684 3.503490 -3.875581 -3.749267 -8.380760 2.012355 -75.799476 -46.385655 83.993011 3.957419 -20.505959 0.473296 -22.314513 -27.511923 3.444738 43.037004 88.061598 40.343851 0.075108 -24.886924 -0.859846 -0.093342 0.704347 -0.045565 -17.388641 -43.732405 7.206494 171.650418 72.793780 169.323736 0.375288 -22.514903 -1.383144 -1.681347 -4.112410 -0.737478
-44.897037 56.469447 44.371295 -168.510799 -31.325576 -11.070112 -4.542567 14.790977 5.638775 -2.772060 8.333525 1.511406 -3.435840 10.425617 1.828288 -2.775499 8.335507 1.513772 4.337609 20.342850 -1.227935 4.963215 -4.009591 -2.324777 2.680274 -1.026064 -4.105617 4.223338 -13.993276 5.619332 74.267440 -46.092490 -59.742295 10.818415 0.507597 -15.992563 -10.974369 3.537026 -3.868686 -3.745864 -8.390433 2.007749 -75.834846 -46.470729 84.030078 4.085107 -20.485290 0.384030 -22.320597 -27.501547 3.466060 42.708746 88.060471 40.005229 0.079599 -24.883146 -0.851547 -0.095809 0.703472 -0.046246 -17.393412 -43.725157 7.221087 171.629813 72.786826 169.304975 0.370608 -22.518064 -1.379152 -1.682885 -4.118694 -0.739921
-44.899827 56.470199 44.370352 -168.511982 -31.312466 -11.071262 -4.539660 14.779955 5.638898 -2.768769 8.335616 1.514205 -3.440134 10.420855 1.829898 -2.770877 8.331598 1.512238 4.313774 20.354277 -1.218639 4.921915 -4.001576 -2.305676 2.670446 -1.007542 -4.102378 4.206101 -13.968379 5.648871 74.211747 -46.091916 -59.685682 10.835258 0.474584 -16.028679 -10.969367 3.564358 -3.861897 -3.723308 -8.399488 1.996409 -75.887586 -46.511035 84.061190 4.194803 -20.505140 0.303482 -22.327258 -27.510970 3.474667 42.558152 88.059987 39.848733 0.082683 -24.884938 -0.847213 -0.096659 0.705871 -0.046001 -17.387317 -43.731626 7.222222 171.617982 72.787969 169.298423 0.354405 -22.535993 -1.371746 -1.673184 -4.106884 -0.739286
-44.903753 56.470675 44.369222 -168.508460 -31.299935 -11.064692 -4.544014 14.771559 5.633516 -2.773369 8.337789 1.514343 -3.431632 10.415630 1.831754 -2.769266 8.330137 1.513370 4.289468 20.362522 -1.217434 4.882087 -3.986634 -2.292241 2.657743 -0.993739 -4.104887 4.188897 -13.944677 5.672288 74.225195 -46.089165 -59.690310 10.831162 0.475664 -16.047413 -10.969497 3.586649 -3.854802 -3.709499 -8.414701 1.985647 -75.924849 -46.551644 84.083808 4.275114 -20.545064 0.221008 -22.333422 -27.523434 3.471227 42.476584 88.062225 39.760078 0.085114 -24.890492 -0.841155 -0.099834 0.707309 -0.045422 -17.374596 -43.737947 7.211757 171.621743 72.793391 169.306038 0.330438 -22.557304 -1.362526 -1.654741 -4.094234 -0.733351
-44.906524 56.470971 44.368107 -168.506009 -31.286685 -11.061107 -4.554743 14.767086 5.627734 -2.770683 8.337611 1.516794 -3.431511 10.414686 1.832179 -2.765062 8.333566 1.519557 4.268783 20.369999 -1.222741 4.860099 -3.973961 -2.289521 2.641858 -0.952662 -4.119709 4.180048 -13.954242 5.697130 74.252600 -46.085611 -59.707682 10.834400 0.473015 -16.068781 -10.966643 3.597652 -3.851581 -3.708188 -8.435347 1.976958 -75.948725 -46.624637 84.105391 4.308994 -20.591068 0.134677 -22.340879 -27.535292 3.471313 42.457044 88.058366 39.736474 0.080813 -24.895348 -0.833077 -0.096113 0.711331 -0.049393 -17.374588 -43.747677 7.208335 171.622276 72.794443 169.306341 0.318727 -22.566576 -1.356000 -1.646787 -4.091566 -0.731674
-44.909244 56.470615 44.367662 -168.510812 -31.270937 -11.050213 -4.563313 14.766909 5.619106 -2.762951 8.325597 1.517660 -3.427880 10.422706 1.840233 -2.762299 8.326986 1.518895 4.244288 20.389608 -1.225207 4.858521 -3.981313 -2.295812 2.634036 -0.945887 -4.126213 4.166675 -13.924873 5.714269 74.291944 -46.083060 -59.739861 10.840094 0.466923 -16.084241 -10.971489 3.611519 -3.847169 -3.684370 -8.440243 1.966758 -76.006637 -46.699588 84.142263 4.318295 -20.643005 0.066291 -22.342490 -27.555081 3.470991 42.447374 88.065669 39.721019 0.081915 -24.897804 -0.828919 -0.098116 0.711369 -0.049328 -17.377785 -43.759860 7.204007 171.622252 72.797174 169.302158 0.310891 -22.579944 -1.356053 -1.641214 -4.084635 -0.728433
-44.914628 56.467627 44.370706 -168.503467 -31.232641 -11.022671 -4.590424 14.739603 5.588105 -2.757048 8.318494 1.518458 -3.425761 10.424730 1.843214 -2.759520 8.325629 1.520191 4.233636 20.396589 -1.227722 4.847710 -3.972496 -2.294290 2.627366 -0.938781 -4.127900 4.161219 -13.907060 5.721895 74.327621 -46.082694 -59.773871 10.842983 0.461730 -16.084977 -10.975605 3.619905 -3.840853 -3.651684 -8.417243 1.964605 -76.094813 -46.772412 84.219019 4.301045 -20.657267 0.026707 -22.355891 -27.607415 3.455722 42.549736 88.073451 39.812460 0.085805 -24.903756 -0.822762 -0.098053 0.712932 -0.049083 -17.380053 -43.800181 7.173917 171.635776 72.798571 169.316814 0.283473 -22.615565 -1.366514 -1.611297 -4.055619 -0.710730
-44.916974 56.466406 44.371493 -168.509569 -31.214307 -11.006301 -4.596136 14.726933 5.575889 -2.753500 8.318115 1.519729 -3.426229 10.423132 1.843756 -2.756280 8.326782 1.522436 4.224885 20.402424 -1.231581 4.803147 -3.886732 -2.279514 2.618469 -0.925567 -4.128064 4.166182 -13.917206 5.718887 74.323110 -46.081198 -59.760655 10.841578 0.437928 -16.111118 -10.977690 3.616847 -3.840306 -3.643250 -8.405879 1.965410 -76.121259 -46.784002 84.242602 4.322104 -20.686235 0.002200 -22.353507 -27.634065 3.452999 42.751458 88.073778 40.009071 0.077334 -24.905010 -0.818761 -0.098196 0.711530 -0.047393 -17.373384 -43.814907 7.159637 171.677129 72.807884 169.361532 0.275703 -22.637785 -1.370798 -1.590642 -4.037301 -0.703674
-44.921028 56.463785 44.374466 -168.507998 -31.185334 -10.978423 -4.612658 14.706259 5.548377 -2.756064 8.317543 1.521198 -3.421334 10.416287 1.842691 -2.750520 8.330551 1.526315 4.202190 20.450315 -1.233041 4.803405 -3.902170 -2.288774 2.607736 -0.904288 -4.120129 4.172157 -13.910428 5.711567 74.352851 -46.090924 -59.789000 10.836223 0.409865 -16.136980 -10.983246 3.626339 -3.832405 -3.632717 -8.390040 1.969130 -76.168878 -46.786518 84.302144 4.352391 -20.732713 -0.018654 -22.353423 -27.677722 3.438250 43.150114 88.074277 40.401009 0.061294 -24.910455 -0.811629 -0.097359 0.714825 -0.047504 -17.371137 -43.840509 7.121560 171.737563 72.826655 169.432324 0.269160 -22.671051 -1.390308 -1.543943 -3.999790 -0.692465
-44.918432 56.463072 44.375962 -168.530574 -31.171732 -10.976886 -4.595108 14.698642 5.559596 -2.752264 8.321139 1.524251 -3.418020 10.412778 1.846246 -2.748682 8.320293 1.524186 4.193306 20.463019 -1.233857 4.800512 -3.901436 -2.289301 2.598523 -0.895087 -4.115011 4.173178 -13.870423 5.712556 74.408323 -46.106748 -59.848991 10.830670 0.391318 -16.164861 -10.993872 3.638937 -3.826246 -3.610263 -8.335328 1.996218 -76.268465 -46.802753 84.404046 4.316198 -20.797699 0.022046 -22.329944 -27.693063 3.463179 43.026622 88.074429 40.282571 0.049142 -24.906593 -0.804362 -0.095663 0.714954 -0.045742 -17.391805 -43.861101 7.134135 171.705759 72.814010 169.397398 0.309747 -22.644935 -1.400143 -1.577539 -4.030864 -0.707829
-44.917843 56.462675 44.377215 -168.532684 -31.163453 -10.971675 -4.596540 14.691266 5.555551 -2.751085 8.319715 1.524354 -3.411387 10.403543 1.845791 -2.749995 8.317560 1.524268 4.187037 20.483917 -1.231372 4.788370 -3.871608 -2.289022 2.583715 -0.865912 -4.099591 4.184512 -13.866513 5.699955 74.439458 -46.128699 -59.869056 10.805077 0.355570 -16.192929 -11.008073 3.660086 -3.818711 -3.592847 -8.314956 2.007886 -76.322179 -46.787435 84.451837 4.322291 -20.818631 0.039487 -22.321699 -27.705281 3.464737 43.145426 88.072161 40.403412 0.043855 -24.903378 -0.803610 -0.089400 0.712203 -0.043929 -17.394102 -43.870066 7.127251 171.703580 72.815042 169.399171 0.312291 -22.645498 -1.405884 -1.588274 -4.036359 -0.704709
-44.916444 56.462747 44.378485 -168.533928 -31.159040 -10.969280 -4.596826 14.685938 5.554054 -2.750394 8.317877 1.523956 -3.408524 10.390125 1.843164 -2.747539 8.312843 1.523791 4.174991 20.510319 -1.243073 4.783046 -3.850787 -2.282449 2.564167 -0.826952 -4.084783 4.193144 -13.859382 5.691135 74.468093 -46.167117 -59.890345 10.804481 0.324757 -16.184403 -11.015307 3.701132 -3.817094 -3.586058 -8.314097 2.022592 -76.387344 -46.744856 84.490073 4.365535 -20.812641 0.061232 -22.319236 -27.711688 3.466929 43.236494 88.068220 40.495794 0.040801 -24.900250 -0.805415 -0.088268 0.711078 -0.043246 -17.395922 -43.874598 7.119986 171.696466 72.815861 169.398472 0.318883 -22.645261 -1.415838 -1.590849 -4.038856 -0.702940
-44.912328 56.463057 44.380404 -168.548465 -31.153547 -10.973190 -4.585863 14.673893 5.561087 -2.747313 8.299740 1.521584 -3.405904 10.394582 1.845048 -2.745388 8.307250 1.522731 4.171388 20.535254 -1.239518 4.773311 -3.826391 -2.297343 2.545388 -0.780474 -4.071025 4.194201 -13.861965 5.685124 74.500627 -46.175451 -59.913394 10.778041 0.276475 -16.150482 -11.019571 3.730245 -3.817217 -3.584274 -8.310791 2.027550 -76.405043 -46.740509 84.499053 4.362251 -20.821157 0.067481 -22.305275 -27.716302 3.483544 43.130835 88.067037 40.398758 0.043027 -24.894586 -0.807746 -0.092501 0.711405 -0.043849 -17.401298 -43.880949 7.128165 171.654295 72.810109 169.369821 0.324375 -22.636904 -1.431880 -1.595069 -4.050877 -0.704093
-44.909939 56.463341 44.382574 -168.556135 -31.147864 -10.968032 -4.581549 14.659324 5.558886 -2.750950 8.296400 1.520524 -3.404752 10.387959 1.843296 -2.742256 8.312027 1.522038 4.166804 20.548158 -1.253923 4.765969 -3.795886 -2.305045 2.514308 -0.731470 -4.047295 4.211466 -13.881446 5.666091 74.525357 -46.186965 -59.925883 10.766718 0.233850 -16.117844 -11.020287 3.759391 -3.820813 -3.588828 -8.301588 2.054661 -76.432481 -46.761398 84.527854 4.358478 -20.837329 0.050728 -22.295756 -27.725994 3.483750 43.087033 88.064694 40.362463 0.049105 -24.889216 -0.812931 -0.094575 0.710032 -0.043756 -17.393631 -43.886878 7.117062 171.618515 72.811540 169.349797 0.321940 -22.638068 -1.444332 -1.589396 -4.050534 -0.703593
-44.905013 56.465189 44.383036 -168.570817 -31.153497 -10.974660 -4.572001 14.657503 5.569578 -2.750525 8.296628 1.521214 -3.401281 10.387063 1.841915 -2.741379 8.307058 1.520766 4.147332 20.592006 -1.281901 4.763402 -3.731293 -2.324911 2.506716 -0.700669 -4.039951 4.206156 -13.883983 5.664065 74.548029 -46.195663 -59.939435 10.759260 0.193752 -16.085674 -11.011711 3.804926 -3.826801 -3.589711 -8.313901 2.079199 -76.467343 -46.785521 84.542401 4.384253 -20.846505 -0.022781 -22.288306 -27.716680 3.495556 42.803974 88.062466 40.088854 0.062379 -24.882972 -0.821689 -0.094397 0.709297 -0.044799 -17.382386 -43.878104 7.109432 171.522809 72.805702 169.284400 0.322062 -22.639007 -1.468115 -1.589302 -4.053688 -0.705999
